<?xml version="1.0" encoding="UTF-8" standalone="no"?>
<!-- Created with Inkscape (http://www.inkscape.org/) -->

<svg
   xmlns:dc="http://purl.org/dc/elements/1.1/"
   xmlns:cc="http://creativecommons.org/ns#"
   xmlns:rdf="http://www.w3.org/1999/02/22-rdf-syntax-ns#"
   xmlns:svg="http://www.w3.org/2000/svg"
   xmlns="http://www.w3.org/2000/svg"
   version="1.0"
   width="2884pt"
   height="1707pt"
   viewBox="0 0 2884 1707"
   id="svg2">
  <defs
     id="defs26" />
  <metadata
     id="metadata4">
Created by potrace 1.11, written by Peter Selinger 2001-2013
<rdf:RDF>
  <cc:Work
     rdf:about="">
    <dc:format>image/svg+xml</dc:format>
    <dc:type
       rdf:resource="http://purl.org/dc/dcmitype/StillImage" />
    <dc:title></dc:title>
  </cc:Work>
</rdf:RDF>
</metadata>
  <g
     transform="matrix(0.1,0,0,-0.1,0,1707)"
     id="g6"
     style="fill:#000000;stroke:none">
    <path
       d="m 14043,17028 c -24,-12 -36,-36 -163,-346 -119,-291 -145,-395 -175,-713 l -6,-65 -97,-12 c -136,-17 -176,-16 -195,6 -10,10 -35,59 -56,109 -86,199 -180,356 -327,548 -38,50 -109,143 -158,208 l -88,117 -54,0 c -68,0 -268,-41 -440,-89 -74,-21 -136,-40 -139,-42 -2,-2 -26,-135 -53,-294 -44,-254 -51,-314 -56,-480 -6,-194 5,-399 23,-433 9,-17 -2,-24 -109,-70 -66,-29 -123,-52 -128,-52 -5,0 -72,76 -151,169 -165,197 -194,225 -397,377 -83,62 -175,133 -205,159 -104,90 -170,105 -264,61 -77,-36 -315,-180 -373,-226 l -52,-40 0,-173 c 0,-165 16,-318 40,-397 6,-19 15,-79 20,-132 7,-78 17,-118 51,-200 51,-127 99,-267 98,-287 0,-9 -43,-51 -96,-93 l -96,-77 -36,19 c -20,10 -92,59 -161,110 -137,101 -215,143 -455,245 -218,93 -368,145 -416,145 -22,0 -58,-9 -80,-20 -42,-22 -344,-324 -368,-368 -26,-48 -8,-124 77,-337 154,-386 200,-475 306,-602 34,-40 75,-98 93,-129 l 31,-57 -56,-81 c -32,-45 -65,-92 -75,-106 l -17,-25 -63,17 c -34,9 -114,39 -178,66 -148,63 -205,77 -419,102 -96,11 -222,26 -280,35 -196,28 -258,14 -318,-68 -58,-82 -208,-354 -226,-411 -25,-79 -13,-113 69,-207 35,-41 123,-150 194,-244 136,-179 154,-199 349,-364 179,-151 169,-127 112,-274 -26,-67 -51,-122 -56,-122 -5,0 -49,7 -99,15 -64,11 -165,15 -345,14 -276,-1 -388,-13 -546,-58 -47,-14 -118,-28 -158,-32 l -73,-6 -62,-233 c -34,-128 -68,-265 -75,-304 l -14,-71 52,-49 c 102,-98 341,-283 501,-387 49,-32 170,-95 269,-142 100,-46 185,-87 189,-91 12,-12 -19,-262 -33,-271 -7,-4 -44,-10 -84,-14 -39,-4 -110,-16 -156,-27 -47,-12 -117,-25 -155,-29 -57,-7 -124,-31 -340,-123 -149,-63 -296,-123 -327,-133 l -58,-18 0,-335 0,-336 51,-34 c 57,-37 99,-57 319,-148 282,-117 367,-140 617,-166 73,-7 135,-16 138,-19 14,-13 28,-157 26,-250 -1,-37 -2,-38 -93,-82 -51,-24 -127,-57 -168,-72 l -75,-29 -250,3 c -137,1 -263,-2 -280,-7 -21,-6 45,-10 213,-10 133,-1 242,-5 242,-9 0,-14 -84,-89 -166,-149 -137,-98 -327,-244 -366,-282 -37,-35 -38,-36 -38,-111 0,-53 6,-88 20,-119 11,-24 20,-45 20,-47 0,-2 -33,-4 -74,-4 -73,0 -74,1 -101,35 l -26,36 -652,-3 -652,-3 -37,-38 -37,-38 -658,4 c -362,2 -670,8 -685,12 -18,4 -28,14 -28,25 0,27 -30,28 -716,35 l -611,5 -18,-40 -18,-40 -693,0 -693,0 -17,33 c -9,17 -20,34 -24,37 -15,10 -1155,4 -1190,-6 -31,-9 -36,-15 -44,-54 -10,-51 -14,-3301 -6,-5538 l 5,-1483 40,-12 c 30,-9 187,-11 607,-10 614,3 622,3 630,55 l 3,23 682,3 c 676,2 682,2 688,-18 4,-11 21,-28 38,-37 29,-15 93,-16 662,-14 347,1 640,5 653,8 12,3 22,13 22,23 0,10 8,22 18,26 9,5 323,10 697,12 l 680,3 11,-29 11,-29 438,-6 c 241,-4 540,-7 664,-7 l 225,0 33,32 c 32,31 36,32 151,39 169,11 847,10 1052,-1 l 175,-9 27,-32 27,-32 639,0 c 352,1 650,4 663,8 13,4 36,20 50,37 l 25,30 658,-1 c 361,-1 667,-6 680,-11 13,-4 32,-20 42,-34 l 19,-25 644,-2 644,-2 23,27 c 20,23 36,28 101,36 115,14 953,23 1139,13 l 162,-10 33,-37 33,-38 355,6 c 196,3 497,9 669,12 l 312,6 0,29 0,29 689,0 689,0 7,-29 c 6,-26 10,-29 67,-35 33,-3 333,-6 666,-6 l 605,0 38,35 39,35 618,1 c 339,1 635,1 657,0 22,-1 51,-11 65,-22 71,-55 18,-51 698,-51 544,0 633,2 665,16 20,8 37,20 37,25 0,31 85,35 710,32 344,-1 633,-4 644,-8 10,-3 32,-20 48,-39 l 30,-34 207,0 c 113,0 406,3 650,7 l 444,6 19,34 20,33 688,0 688,0 12,-29 c 8,-19 22,-32 43,-37 18,-5 317,-9 666,-9 l 634,0 29,35 28,35 676,3 c 650,2 676,2 681,-16 2,-10 18,-27 35,-37 28,-16 63,-17 480,-16 247,1 456,5 464,8 12,4 14,477 14,3544 l 0,3539 -122,0 c -68,0 -281,3 -475,7 l -351,6 -19,-39 -18,-39 -585,-7 c -322,-5 -621,-5 -665,-2 -89,6 -139,25 -162,60 l -15,24 -653,0 -653,0 -21,-34 -21,-34 -128,-8 c -165,-9 -962,-9 -1116,0 -116,8 -119,9 -156,42 l -37,34 -643,0 -643,0 -31,-35 -31,-35 -235,0 c -129,-1 -245,-1 -256,-1 -29,1 -34,40 -18,143 8,44 11,85 8,90 -9,14 -275,233 -389,320 -55,42 -120,98 -145,123 l -45,46 285,-6 c 157,-3 319,-2 360,3 l 75,8 -100,8 c -55,5 -201,6 -325,3 -317,-7 -373,0 -524,67 -66,30 -138,61 -160,70 -23,9 -36,21 -33,28 2,7 12,70 22,140 l 18,128 31,4 c 17,3 58,8 91,11 282,28 485,91 872,272 l 163,76 0,313 0,313 -42,29 c -70,48 -191,105 -405,190 -201,81 -204,82 -440,122 -131,23 -245,43 -254,46 -12,3 -20,35 -34,127 -11,67 -19,126 -20,131 0,15 52,42 208,110 78,34 183,88 232,120 129,84 460,332 530,398 l 59,55 -38,159 c -51,210 -104,394 -121,421 -18,27 -50,36 -230,68 -225,40 -470,67 -605,67 -98,0 -300,-19 -372,-35 -5,-1 -34,54 -63,123 l -53,125 36,39 c 20,21 82,72 137,114 136,103 208,179 371,392 77,100 158,206 181,236 54,69 69,123 53,179 -13,42 -220,416 -248,449 -43,48 -122,56 -302,31 -58,-9 -186,-24 -285,-35 -206,-23 -246,-33 -406,-101 -105,-44 -237,-86 -243,-77 -2,2 -37,47 -79,100 -43,53 -77,101 -77,106 0,16 76,125 141,204 79,93 135,198 233,435 137,334 156,411 119,491 -9,21 -60,80 -112,132 -53,52 -120,123 -150,158 -65,77 -93,92 -166,92 -70,0 -164,-31 -349,-115 -78,-35 -176,-77 -219,-94 -114,-45 -141,-61 -252,-143 -55,-41 -133,-96 -172,-122 l -72,-48 -105,83 c -88,69 -105,86 -100,103 4,12 33,84 65,162 98,237 105,273 129,636 28,443 33,396 -44,436 -35,18 -140,78 -232,132 -92,55 -182,102 -199,106 -44,8 -87,-16 -220,-122 -60,-48 -169,-128 -240,-179 -174,-124 -223,-170 -308,-289 -40,-55 -94,-124 -122,-153 l -50,-52 -125,48 c -85,33 -126,54 -128,65 -2,10 3,35 12,57 13,33 16,87 16,312 l 0,272 -46,280 c -26,154 -51,284 -55,289 -16,18 -439,123 -572,141 -46,6 -49,5 -83,-32 -20,-21 -88,-108 -151,-193 -64,-85 -146,-193 -183,-240 -84,-106 -116,-162 -179,-318 -28,-67 -65,-149 -81,-182 -30,-59 -32,-61 -63,-55 -18,3 -79,14 -137,23 l -105,18 -12,113 c -28,274 -57,382 -185,701 -105,261 -121,296 -147,310 -27,14 -638,12 -668,-2 z m 1712,-2643 c 33,-13 98,-31 144,-40 90,-17 237,-69 366,-130 165,-77 342,-154 410,-180 87,-32 171,-78 210,-115 17,-16 102,-67 190,-115 88,-48 175,-100 195,-116 19,-17 76,-56 125,-89 191,-124 393,-308 752,-685 170,-179 219,-237 253,-297 l 23,-41 -79,6 c -43,3 -99,14 -124,23 -25,9 -75,20 -111,24 -86,9 -140,36 -235,118 -44,37 -126,104 -183,147 -58,44 -121,95 -140,114 -20,18 -52,41 -72,52 -20,10 -48,32 -62,49 -15,17 -35,30 -49,30 -28,0 -42,9 -56,36 -13,24 -345,223 -487,292 -49,24 -99,52 -110,62 -11,10 -31,21 -45,25 -14,4 -66,24 -115,45 -50,21 -104,42 -120,46 -17,4 -83,33 -147,65 -65,33 -128,59 -141,59 -38,0 -115,55 -131,95 -9,20 -22,43 -31,51 -8,9 -46,59 -84,112 -38,54 -97,128 -132,167 -34,38 -77,92 -95,121 -18,28 -44,58 -58,68 -14,9 -26,21 -26,28 0,16 94,1 165,-27 z m -2940,-142 c -123,-359 -239,-661 -261,-684 -14,-14 -91,-66 -172,-114 -165,-100 -339,-229 -517,-384 -167,-146 -568,-537 -607,-591 -18,-25 -62,-76 -98,-115 -37,-38 -119,-132 -183,-207 -64,-75 -122,-140 -128,-143 -6,-4 -68,-9 -137,-10 -190,-5 -304,-33 -645,-159 -98,-36 -181,-66 -183,-66 -2,0 20,39 49,88 30,48 67,112 83,142 77,146 394,621 459,685 30,31 55,61 55,67 0,6 30,41 68,77 37,36 95,101 130,143 36,45 123,129 207,200 80,67 145,125 145,130 0,18 67,81 133,125 40,26 123,89 185,140 135,111 191,150 235,165 17,6 49,27 70,45 44,39 181,130 245,162 23,12 79,35 124,52 44,16 94,41 110,54 16,13 59,34 96,45 37,12 76,27 87,34 24,16 446,183 467,185 4,1 -4,-29 -17,-66 z m 3272,-609 c 26,-9 84,-34 128,-55 180,-86 439,-199 455,-199 10,0 20,-7 24,-15 3,-8 12,-15 21,-15 9,0 50,-23 91,-51 41,-27 94,-57 116,-65 84,-29 350,-197 449,-282 24,-21 58,-46 74,-56 17,-11 46,-32 65,-48 19,-16 63,-48 96,-71 112,-76 232,-179 247,-211 23,-48 38,-139 47,-272 4,-67 10,-126 14,-133 4,-6 20,-160 36,-343 16,-183 38,-382 48,-443 11,-60 20,-128 20,-150 0,-22 4,-76 10,-120 18,-133 42,-358 40,-360 -138,-105 -493,-340 -623,-413 -49,-28 -115,-66 -145,-86 -30,-19 -78,-46 -107,-59 -29,-13 -70,-40 -91,-59 -22,-20 -70,-52 -108,-73 -38,-21 -108,-60 -155,-86 -48,-27 -98,-49 -113,-49 -34,0 -74,21 -104,53 -13,14 -120,85 -238,159 -118,73 -240,149 -272,169 -31,20 -79,48 -107,63 -27,16 -67,40 -90,56 -22,15 -71,44 -110,65 -38,20 -150,91 -248,157 -170,113 -327,208 -519,312 -62,33 -89,53 -92,69 -3,12 -16,166 -30,342 -16,207 -30,333 -40,356 -15,37 -46,297 -46,393 0,31 -13,104 -29,164 -16,59 -41,190 -56,291 -16,107 -33,194 -42,208 -22,33 -20,99 4,131 11,15 87,70 170,122 82,52 169,111 194,131 55,44 66,51 214,131 66,36 133,68 148,72 15,4 49,22 75,40 46,33 172,99 242,126 19,8 66,32 104,53 123,70 156,77 233,51 z m -3126,-273 c 339,-72 566,-136 684,-191 33,-15 87,-33 120,-40 33,-7 107,-30 165,-53 58,-22 132,-48 165,-58 94,-28 245,-87 291,-114 23,-14 51,-39 62,-57 28,-45 81,-262 93,-383 6,-55 22,-161 35,-235 13,-74 28,-178 34,-230 6,-52 17,-149 25,-215 8,-66 17,-142 19,-168 3,-26 9,-62 15,-80 11,-36 25,-160 41,-352 6,-71 13,-144 15,-161 5,-28 2,-33 -25,-44 -17,-7 -45,-30 -63,-50 -17,-21 -77,-74 -132,-118 -188,-149 -412,-337 -521,-436 -150,-136 -435,-373 -575,-478 -64,-48 -119,-96 -122,-108 -3,-11 -13,-23 -24,-27 -10,-3 -42,-28 -71,-55 -30,-26 -61,-48 -70,-49 -80,-4 -217,28 -482,114 -58,19 -141,42 -185,51 -163,36 -362,88 -421,112 -33,13 -78,24 -100,24 -42,0 -185,33 -324,73 -47,14 -105,28 -130,31 -80,11 -215,38 -222,45 -9,8 -55,333 -68,481 -14,154 -28,245 -146,985 -32,202 -40,320 -25,367 14,43 94,140 266,323 208,221 655,661 713,702 30,21 82,59 115,85 34,26 108,80 165,120 56,39 102,78 102,86 0,8 6,12 13,9 7,-2 26,8 42,24 16,16 53,41 82,54 29,14 53,30 53,34 0,17 75,30 141,26 36,-3 149,-23 250,-44 z m 5356,-2978 c 70,-86 165,-195 211,-240 45,-46 98,-107 116,-136 19,-28 67,-83 106,-122 40,-38 93,-101 120,-140 26,-38 75,-98 108,-132 33,-33 65,-71 72,-83 26,-49 30,-133 14,-315 -36,-425 -122,-886 -178,-960 -9,-11 -16,-41 -16,-68 0,-85 -131,-456 -200,-568 -15,-25 -31,-64 -35,-86 -8,-50 -125,-292 -151,-314 -39,-33 -422,-241 -509,-276 -16,-7 -59,-31 -95,-55 -36,-23 -124,-72 -196,-108 -72,-37 -151,-82 -175,-100 -59,-43 -181,-104 -248,-124 -30,-9 -55,-15 -56,-13 -1,1 -21,31 -45,67 -24,36 -46,67 -50,70 -15,12 -132,164 -197,255 -40,55 -106,134 -147,176 -41,42 -93,104 -114,137 -22,34 -54,73 -71,88 -17,14 -45,46 -61,69 -17,24 -58,70 -91,102 -110,103 -140,177 -108,260 14,36 53,196 80,326 27,131 75,316 93,359 8,18 19,71 25,119 12,96 77,359 120,488 29,88 64,231 76,311 12,79 55,241 77,287 24,51 90,99 238,173 47,23 114,61 150,85 36,24 142,90 235,148 94,58 305,189 470,291 165,102 301,186 302,186 1,0 59,-71 130,-157 z m 1138,-354 c 22,-104 39,-446 30,-614 -4,-77 -9,-196 -10,-265 -1,-89 -7,-136 -19,-164 -11,-26 -16,-67 -16,-125 0,-49 -7,-110 -16,-141 -8,-30 -20,-89 -25,-130 -5,-41 -15,-97 -23,-125 -8,-27 -14,-57 -14,-65 0,-34 -54,-247 -71,-285 -11,-22 -27,-69 -36,-105 -9,-36 -27,-92 -40,-125 -13,-33 -26,-70 -30,-83 -15,-52 -117,-97 -163,-73 -55,29 -54,190 3,405 20,76 42,171 50,210 26,142 54,264 71,304 9,23 14,49 10,57 -7,19 20,253 33,287 5,14 10,118 11,232 0,113 3,221 6,239 8,50 25,120 34,142 5,11 11,36 14,55 6,33 177,452 183,447 1,-2 10,-37 18,-78 z m -8196,-159 c 43,-11 124,-26 182,-35 57,-8 126,-21 153,-30 26,-8 139,-33 250,-56 110,-22 273,-63 360,-90 88,-27 168,-49 177,-49 10,0 53,-11 96,-24 130,-40 274,-82 348,-101 39,-10 110,-28 158,-41 98,-25 122,-40 131,-85 3,-17 42,-113 86,-212 43,-100 104,-249 134,-332 61,-168 62,-171 182,-455 156,-371 344,-853 337,-864 -12,-18 -236,-321 -242,-326 -3,-3 -32,-36 -63,-75 -31,-38 -73,-86 -92,-104 -20,-19 -36,-43 -36,-53 0,-10 -4,-18 -10,-18 -5,0 -16,-15 -25,-33 -8,-18 -40,-63 -70,-99 -30,-36 -55,-70 -55,-75 0,-4 -23,-30 -51,-58 l -51,-50 -143,-3 -143,-4 -21,-38 c -25,-44 -27,-97 -6,-128 9,-12 36,-34 61,-48 40,-23 43,-28 31,-43 -7,-9 -42,-52 -77,-96 -35,-44 -79,-96 -97,-116 l -34,-36 -62,18 c -34,10 -107,34 -162,52 -55,19 -126,43 -158,53 -49,15 -61,23 -77,54 l -19,37 -121,7 c -136,7 -273,39 -458,105 -62,23 -121,41 -131,41 -10,0 -34,10 -52,23 -19,13 -40,22 -46,20 -7,-3 -59,14 -115,37 -63,25 -137,47 -190,55 -152,23 -210,65 -268,195 -19,41 -46,87 -61,101 -16,15 -30,42 -34,65 -4,21 -18,50 -30,64 -13,14 -26,36 -30,50 -11,37 -54,131 -74,160 -10,14 -28,52 -41,85 -13,33 -27,65 -31,71 -11,14 -134,333 -202,524 -81,229 -190,599 -190,647 0,29 8,55 27,84 52,78 288,384 335,434 26,28 56,67 67,88 10,21 38,56 61,79 24,23 43,50 43,59 0,10 8,20 18,23 9,3 27,27 39,54 12,26 39,66 60,89 22,23 56,67 77,98 22,31 52,65 68,76 15,11 35,36 43,55 31,74 126,186 163,193 2,1 39,-8 81,-19 z M 9482,9163 c 31,-32 98,-107 148,-168 51,-60 153,-171 226,-245 142,-145 169,-187 178,-275 2,-27 16,-75 29,-105 24,-54 117,-333 117,-351 0,-29 289,-789 332,-872 34,-65 53,-116 56,-148 4,-44 2,-49 -22,-60 -33,-15 -103,-1 -205,42 -40,17 -84,29 -99,27 -55,-5 -241,24 -255,41 -44,50 -230,450 -291,626 -24,66 -50,136 -59,155 -24,50 -99,288 -104,330 -2,19 -12,51 -23,70 -10,19 -21,51 -25,70 -3,19 -18,87 -32,150 -13,63 -28,153 -33,200 -5,47 -15,109 -24,138 -23,79 -36,224 -36,389 l 1,148 33,-52 c 18,-29 58,-78 88,-110 z m 9397,-1757 c -1,-127 -6,-260 -13,-296 l -11,-65 -47,-3 -48,-3 0,181 0,180 40,118 c 22,64 43,123 45,131 4,11 8,11 20,1 13,-10 15,-50 14,-244 z m 211,164 c 0,-16 -16,-70 -36,-120 -50,-125 -71,-115 -73,37 -1,74 1,83 21,97 12,9 37,16 55,16 30,0 33,-3 33,-30 z m -3076,-56 c 15,-6 17,-15 12,-48 -10,-72 -24,-1601 -16,-1785 8,-174 13,-211 32,-211 16,0 37,-65 53,-162 21,-133 20,-170 -8,-196 -24,-22 -102,-42 -167,-42 l -37,0 -9,848 c -10,1087 -11,1483 0,1556 l 8,59 57,-6 c 32,-4 66,-9 75,-13 z m -271,-11 39,-6 -4,-323 c -2,-207 -7,-327 -13,-333 -8,-8 -47,-6 -130,4 -195,24 -266,19 -310,-21 -21,-19 -25,-32 -25,-79 0,-63 22,-95 68,-96 150,-3 247,4 296,21 76,26 92,19 105,-41 14,-62 13,-218 0,-324 -6,-44 -14,-265 -17,-492 -4,-226 -11,-415 -15,-420 -5,-4 -63,-8 -130,-8 -116,0 -124,1 -170,28 -27,16 -50,34 -52,40 -2,7 -6,139 -9,294 l -6,281 131,4 c 129,3 131,3 155,31 32,38 33,105 2,142 -29,33 -79,44 -190,45 l -88,0 0,53 0,52 118,0 c 131,1 177,15 188,60 9,35 -3,85 -26,115 -18,24 -23,25 -164,28 l -146,3 -30,-29 c -16,-17 -44,-33 -60,-37 -17,-4 -51,-24 -76,-46 -25,-21 -53,-39 -63,-39 -10,0 -24,-12 -31,-26 -8,-14 -35,-37 -60,-52 -25,-14 -67,-48 -94,-74 -57,-58 -307,-228 -334,-228 -45,0 -114,35 -194,99 -48,38 -99,72 -113,75 -45,11 -93,-11 -115,-54 -12,-24 -30,-42 -49,-48 -21,-7 -40,-30 -70,-80 -42,-73 -89,-120 -139,-143 -16,-7 -38,-28 -48,-47 -10,-19 -32,-46 -50,-61 -37,-31 -61,-67 -74,-110 l -9,-31 406,0 c 365,0 405,-2 399,-16 -3,-9 -6,-67 -6,-129 l 0,-113 -147,-4 c -82,-1 -154,-7 -160,-11 -10,-6 -13,-56 -13,-193 l 0,-185 -237,2 c -131,0 -245,4 -254,8 -16,6 -186,203 -321,371 -74,93 -138,186 -138,202 0,4 23,33 50,63 56,62 62,90 30,142 -37,61 -113,78 -214,48 -63,-19 -86,-19 -86,1 0,8 -27,47 -59,86 l -60,70 32,27 c 17,14 41,36 52,49 15,17 41,26 104,37 47,8 88,20 93,27 17,27 28,85 28,149 0,64 2,69 43,118 36,44 46,50 72,46 17,-2 65,-7 107,-10 l 77,-6 11,38 c 6,21 15,101 22,178 l 11,140 231,312 c 127,172 238,315 246,317 35,12 339,37 510,42 102,3 217,11 255,19 39,8 142,17 230,20 88,4 250,12 360,19 251,16 281,17 328,9 z m 449,-60 c 9,-10 21,-28 25,-40 4,-12 47,-64 95,-116 l 87,-95 -42,-16 c -24,-9 -53,-16 -65,-16 -47,0 -87,-110 -57,-156 26,-40 74,-54 189,-57 89,-2 107,1 124,16 11,11 25,16 30,13 5,-3 65,-71 132,-151 l 122,-145 -7,-230 -7,-230 -38,0 c -20,0 -71,3 -113,6 l -75,7 -4,126 c -4,158 -12,174 -94,191 -70,15 -218,10 -236,-8 -7,-7 -12,-39 -12,-81 0,-98 13,-111 113,-111 89,0 141,-23 141,-63 0,-35 -50,-55 -145,-60 -44,-2 -93,-10 -108,-17 -27,-13 -28,-15 -25,-89 l 3,-76 55,-18 c 75,-25 193,-26 243,-2 21,10 45,31 53,46 14,28 17,29 93,29 62,0 84,-4 102,-19 l 23,-18 -34,-59 c -41,-74 -100,-154 -160,-219 -58,-63 -153,-188 -213,-282 l -47,-73 -70,0 -70,0 -24,48 c -57,114 -58,119 -62,627 -3,259 -1,490 4,515 10,58 22,59 172,26 227,-52 290,-27 290,116 0,48 -1,49 -44,69 -66,29 -122,33 -206,14 -41,-9 -98,-19 -126,-22 l -51,-5 -21,43 c -21,42 -21,54 -16,299 6,271 14,326 42,311 10,-5 25,-18 34,-28 z m 7057,-428 c 86,-21 205,-78 331,-159 57,-36 106,-66 110,-66 13,0 40,60 40,88 0,65 -16,62 296,62 l 284,0 0,-782 0,-781 -172,6 c -95,4 -226,7 -290,7 l -118,0 0,238 c 0,340 -19,476 -86,618 -64,137 -185,209 -349,208 -353,-2 -454,-513 -206,-1039 94,-199 208,-362 522,-745 204,-250 267,-333 356,-465 275,-412 454,-833 519,-1220 21,-122 24,-423 5,-540 -91,-579 -441,-995 -860,-1022 -159,-10 -290,27 -463,133 -113,69 -191,114 -199,114 -13,0 -34,-66 -34,-105 0,-36 -3,-40 -30,-46 -16,-4 -148,-7 -292,-8 l -263,-1 0,905 0,905 290,0 290,0 1,-27 c 0,-16 2,-172 4,-348 4,-412 26,-583 91,-721 33,-70 118,-155 192,-191 50,-25 68,-28 152,-28 86,0 101,3 163,32 128,61 225,187 268,350 31,113 31,347 1,489 -47,218 -148,448 -302,682 -98,150 -149,218 -395,527 -293,368 -397,513 -524,735 -124,216 -215,462 -257,695 -22,122 -26,478 -6,595 82,493 302,804 637,901 75,22 209,24 294,4 z M 9895,6939 c 252,-17 448,-65 627,-154 352,-174 579,-486 665,-910 25,-126 25,-461 0,-592 -29,-155 -65,-262 -129,-393 -54,-109 -72,-135 -142,-206 -69,-69 -97,-89 -186,-133 -59,-28 -148,-62 -203,-76 -100,-25 -157,-55 -157,-80 0,-22 41,-44 168,-90 206,-74 315,-139 427,-252 165,-167 295,-444 351,-748 28,-154 26,-482 -4,-631 -113,-561 -468,-954 -993,-1098 -200,-55 -498,-76 -1100,-76 -223,0 -454,3 -512,7 l -107,6 0,283 c 0,320 -10,288 90,299 30,4 99,2 152,-4 118,-13 142,-6 160,46 10,30 13,430 15,2018 2,1089 0,2027 -4,2085 l -8,105 -135,6 c -74,4 -165,7 -202,8 l -68,1 0,290 0,290 38,1 c 354,14 510,16 787,12 182,-2 393,-8 470,-14 z m 16440,1 c 341,-24 566,-93 788,-240 341,-226 526,-588 544,-1065 18,-494 -144,-890 -434,-1060 -44,-25 -130,-61 -202,-85 -133,-43 -191,-71 -191,-93 0,-29 52,-59 171,-98 193,-62 300,-129 434,-270 393,-414 471,-1191 180,-1795 -138,-287 -418,-519 -764,-633 -270,-89 -570,-110 -1363,-96 l -438,7 0,288 0,289 158,-2 c 191,-2 229,4 243,41 28,72 34,4122 7,4180 -25,52 -66,62 -245,62 l -163,0 0,273 c 0,149 4,277 8,284 10,15 102,18 682,21 245,1 508,-3 585,-8 z m -22845,-760 0,-760 -290,0 -290,0 0,455 c 0,436 -1,455 -19,464 -38,21 -264,34 -476,27 -245,-7 -272,-11 -287,-40 -16,-30 -24,-1318 -9,-1527 6,-86 13,-164 17,-173 5,-14 27,-16 163,-16 87,0 213,-3 279,-7 l 122,-6 0,-287 0,-288 -271,-4 c -310,-5 -292,1 -306,-97 -10,-73 -10,-1724 0,-1774 12,-57 31,-61 260,-60 l 197,1 0,-289 0,-289 -774,0 -775,0 -8,48 c -10,60 -11,445 0,493 l 7,36 187,7 c 103,4 189,9 191,11 19,19 24,409 23,2165 0,1545 -3,1968 -13,2015 l -13,60 -95,6 c -52,4 -136,7 -187,8 l -92,1 -8,38 c -13,60 -9,483 5,515 l 12,27 1225,0 1225,0 0,-760 z m 16610,475 0,-285 -95,0 c -104,0 -156,-15 -175,-49 -21,-40 -30,-583 -29,-1811 1,-1449 10,-2000 33,-2110 24,-108 85,-229 144,-281 108,-96 279,-132 453,-95 170,36 275,146 323,336 34,136 38,347 33,2120 -5,1585 -9,1845 -30,1866 -3,4 -61,9 -127,12 l -120,5 -7,36 c -13,59 -9,482 5,514 l 12,27 635,0 635,0 0,-289 0,-289 -190,-4 c -128,-2 -193,-7 -201,-15 -23,-23 -31,-698 -24,-2178 5,-1055 3,-1493 -5,-1580 -28,-292 -98,-520 -213,-690 -155,-230 -380,-378 -682,-448 -122,-28 -371,-30 -493,-3 -184,39 -346,114 -477,220 -213,172 -329,393 -381,727 -17,107 -18,220 -15,1834 2,1682 -3,2093 -29,2119 -7,7 -82,12 -195,15 l -185,3 -7,37 c -13,60 -9,482 5,514 l 12,27 695,0 695,0 0,-285 z M 7618,5923 c 7,-236 15,-476 18,-534 l 6,-106 67,-7 c 36,-3 130,-6 209,-6 l 142,0 -2,-272 -3,-273 -210,-8 c -137,-6 -212,-13 -217,-20 -19,-32 -23,-231 -23,-1262 0,-1190 0,-1185 47,-1280 40,-79 89,-113 193,-135 59,-12 240,-9 315,7 l 33,6 -6,-48 c -4,-26 -7,-137 -7,-246 l 0,-198 -67,-21 c -120,-37 -254,-52 -413,-47 -424,15 -590,170 -676,632 -18,94 -19,173 -20,1260 0,1113 -5,1310 -30,1335 -5,5 -78,12 -161,16 l -153,7 0,82 c 0,45 3,170 7,278 l 6,197 153,0 152,0 12,35 c 13,39 15,271 4,452 -5,93 -4,117 9,136 8,13 59,57 114,99 119,92 476,348 484,348 3,0 11,-192 17,-427 z m 7637,-70 c 0,-389 3,-506 13,-535 l 14,-38 213,0 c 212,0 213,0 219,-22 3,-13 6,-138 6,-279 l 0,-256 -217,-7 c -119,-4 -220,-9 -223,-12 -14,-15 -20,-240 -26,-1054 -6,-939 2,-1343 30,-1435 24,-77 68,-140 123,-171 42,-25 59,-29 148,-32 55,-2 139,0 186,5 l 86,9 8,-239 c 4,-141 3,-243 -2,-248 -17,-17 -226,-58 -343,-68 -194,-16 -359,8 -496,73 -131,62 -201,148 -253,313 -92,295 -121,713 -99,1463 15,491 17,1250 5,1323 -12,67 -38,77 -202,77 l -125,0 0,274 0,274 148,4 c 81,2 153,7 160,11 9,6 12,81 12,317 l 0,308 303,221 c 166,121 304,220 307,221 3,0 5,-224 5,-497 z m -956,135 c 86,-86 164,-208 145,-227 -7,-8 -467,-19 -476,-11 -20,15 43,98 146,195 61,58 114,105 117,105 4,0 35,-28 68,-62 z m -1232,-659 c 314,-79 516,-298 654,-706 110,-325 156,-714 146,-1238 -11,-574 -65,-990 -167,-1280 -124,-350 -304,-548 -590,-647 -91,-31 -101,-32 -250,-33 -135,0 -165,3 -230,23 -447,140 -681,612 -741,1492 -13,197 -7,811 11,1025 32,388 100,666 220,906 55,109 90,160 164,238 200,209 497,293 783,220 z m -8483,-49 c 70,-5 137,-12 148,-16 20,-6 20,-19 18,-1477 -2,-1042 1,-1487 8,-1525 48,-224 202,-296 407,-188 67,35 173,133 200,185 30,60 37,293 38,1236 0,773 -9,1194 -25,1210 -2,2 -79,7 -172,11 l -169,7 8,276 c 4,152 8,277 9,278 0,0 213,-1 472,-4 l 472,-6 5,-66 c 11,-120 8,-2788 -3,-2939 -14,-202 -11,-207 175,-207 l 120,0 3,-273 2,-272 -133,0 c -74,0 -276,3 -450,7 l -317,6 -1,116 c -1,145 -6,165 -43,169 -38,5 -66,-17 -124,-94 -116,-153 -296,-239 -502,-238 -87,1 -118,5 -179,27 -186,66 -295,200 -355,437 -47,187 -49,248 -51,1480 -1,1079 -5,1263 -27,1286 -2,2 -71,6 -152,10 l -149,7 8,271 c 4,149 9,273 11,275 17,17 555,25 748,11 z m 9966,-767 0,-76 -315,6 c -363,7 -368,8 -373,76 -5,72 -12,70 361,71 l 327,0 0,-77 z"
       id="path8" />
    <path
       d="m 12965,7211 c -91,-22 -118,-98 -70,-192 17,-32 33,-37 151,-45 74,-6 97,-4 126,10 43,21 68,73 68,140 0,41 -2,45 -38,59 -77,31 -176,42 -237,28 z"
       id="path10" />
    <path
       d="m 11551,6746 c -32,-18 -39,-38 -40,-109 -2,-102 31,-136 121,-123 145,19 173,19 219,-4 24,-12 63,-40 85,-62 l 41,-40 119,-1 c 92,-1 128,3 157,16 l 38,16 -3,72 c -3,66 -5,74 -31,93 -27,20 -42,21 -221,22 -228,1 -257,8 -287,66 -13,26 -32,44 -54,54 -43,18 -112,18 -144,0 z"
       id="path12" />
    <path
       d="m 9754,6354 c -15,-4 -24,-16 -28,-37 -12,-58 -18,-1285 -8,-1475 6,-101 13,-187 17,-190 4,-4 64,-7 133,-7 142,0 226,20 335,78 135,71 237,226 279,422 29,135 32,517 5,665 -35,191 -98,328 -183,398 -56,47 -159,98 -244,122 -73,20 -258,35 -306,24 z"
       id="path14" />
    <path
       d="m 9749,4053 c -9,-2 -21,-16 -25,-31 -10,-35 -12,-1859 -2,-1890 13,-37 51,-45 165,-32 364,39 556,180 658,483 51,154 66,249 72,457 4,168 2,212 -15,316 -37,217 -115,391 -229,514 -65,71 -113,101 -211,134 -125,43 -341,69 -413,49 z"
       id="path16" />
    <path
       d="m 26196,6345 c -23,-23 -29,-91 -24,-263 3,-86 1,-353 -4,-592 -9,-447 1,-813 22,-834 18,-18 224,-11 325,12 127,28 196,62 258,124 133,134 200,368 199,693 0,197 -23,348 -73,501 -78,235 -192,320 -479,359 -138,19 -205,19 -224,0 z"
       id="path18" />
    <path
       d="m 26213,4054 c -16,-4 -25,-16 -30,-42 -10,-47 -11,-1838 -1,-1873 12,-43 50,-52 164,-39 185,20 301,60 420,146 263,187 373,592 298,1089 -34,221 -85,358 -182,486 -85,112 -172,165 -342,208 -82,21 -277,36 -327,25 z"
       id="path20" />
    <path
       d="m 12775,4796 c -39,-17 -98,-83 -128,-143 -96,-191 -120,-413 -133,-1223 -11,-679 24,-1103 105,-1277 88,-187 281,-239 425,-112 106,93 139,214 156,575 28,600 31,755 21,1109 -21,718 -42,839 -167,975 -90,97 -195,133 -279,96 z"
       id="path22" />
  </g>
</svg>
